<?xml version="1.0" encoding="UTF-8" standalone="no"?>
<!DOCTYPE svg PUBLIC "-//W3C//DTD SVG 1.1//EN" "http://www.w3.org/Graphics/SVG/1.1/DTD/svg11.dtd">
<svg width="100%" height="100%" viewBox="0 0 960 540" version="1.1" xmlns="http://www.w3.org/2000/svg" xmlns:xlink="http://www.w3.org/1999/xlink" xml:space="preserve" xmlns:serif="http://www.serif.com/" style="fill-rule:evenodd;clip-rule:evenodd;stroke-linejoin:round;stroke-miterlimit:2;">
    <path d="M0,104L87,158L175,125L262,131L349,163L436,163L524,168L611,174L698,136L785,104L873,125L960,147L960,0L0,0L0,104Z" style="fill:rgb(13,27,59);fill-rule:nonzero;"/>
    <path d="M0,185L87,195L175,212L262,217L349,206L436,239L524,233L611,222L698,185L785,147L873,190L960,190L960,145L873,123L785,102L698,134L611,172L524,166L436,161L349,161L262,129L175,123L87,156L0,102L0,185Z" style="fill:rgb(19,39,84);fill-rule:nonzero;"/>
    <path d="M0,228L87,249L175,287L262,309L349,303L436,336L524,298L611,282L698,260L785,255L873,287L960,255L960,188L873,188L785,145L698,183L611,220L524,231L436,237L349,204L262,215L175,210L87,193L0,183L0,228Z" style="fill:rgb(26,52,113);fill-rule:nonzero;"/>
    <path d="M0,357L87,395L175,347L262,368L349,428L436,449L524,363L611,390L698,352L785,379L873,368L960,401L960,253L873,285L785,253L698,258L611,280L524,296L436,334L349,301L262,307L175,285L87,247L0,226L0,357Z" style="fill:rgb(36,73,157);fill-rule:nonzero;"/>
    <path d="M0,541L960,541L960,399L873,366L785,377L698,350L611,388L524,361L436,447L349,426L262,366L175,345L87,393L0,355L0,541Z" style="fill:rgb(47,96,206);fill-rule:nonzero;"/>
</svg>
